# xmcd CD database file
#
# Track frame offsets:
#	150
#	30853
#	92636
#	106161
#	124201
#	154951
#	177084
#	219089
#	248425
#	273172
#	285760
#	309279
#	331423
#
# Disc length: 4684 seconds
#
# Revision: 1
# Processed by: cddbd v1.5.2PL0 Copyright (c) Steve Scherf et al.
# Submitted via: CDex 2.16
#
DISCID=97124a0d
DTITLE=Various Artist - EMOTIONAL JAZZ SAXOPHONE
DYEAR=2016
DGENRE=Jazz
TTITLE0=St. Thomas-Sonny Rollins
TTITLE1=My Favorite Things-John Coltrane
TTITLE2=Confirmation-Charlie Parker
TTITLE3=Besame Mucho-Art Pepper
TTITLE4=Bag Of Blues-Bud Shank
TTITLE5=The Londonderry Air-Johnny Griffin
TTITLE6=Candy-Lou Donaldson
TTITLE7=Cheese Cake-Dexter Gordon
TTITLE8=East Of The Sun(And West Of The Moon)-Sonny Stitt
TTITLE9=Violets For Your Furs-J.R. Monterose
TTITLE10=Hackensack-Bareny Wilen
TTITLE11=9.20 Special-Zoot Sims
TTITLE12=Day Dream-Steve Lacy
EXTD=YEAR: 2016
EXTT0=
EXTT1=
EXTT2=
EXTT3=
EXTT4=
EXTT5=
EXTT6=
EXTT7=
EXTT8=
EXTT9=
EXTT10=
EXTT11=
EXTT12=
PLAYORDER=
